<?xml version="1.0" encoding="utf-8"?>
<!-- Generator: Adobe Illustrator 13.0.0, SVG Export Plug-In . SVG Version: 6.00 Build 14948)  -->
<!DOCTYPE svg PUBLIC "-//W3C//DTD SVG 1.1//EN" "http://www.w3.org/Graphics/SVG/1.1/DTD/svg11.dtd">
<svg version="1.1" id="Layer_1" xmlns="http://www.w3.org/2000/svg" xmlns:xlink="http://www.w3.org/1999/xlink" x="0px" y="0px"
	 width="150px" height="150px" viewBox="0 0 150 150" enable-background="new 0 0 150 150" xml:space="preserve">
<g>
	<path fill="#FF5270" d="M71.352,2.601c2.006-3.467,5.289-3.467,7.295,0l2.492,4.302c2.006,3.467,6.086,4.113,9.066,1.437
		l3.697-3.322c2.98-2.677,6.102-1.663,6.939,2.254l1.039,4.861c0.838,3.917,4.518,5.793,8.178,4.168l4.545-2.018
		c3.662-1.624,6.316,0.306,5.904,4.29l-0.514,4.944c-0.416,3.984,2.506,6.905,6.488,6.492l4.945-0.515
		c3.982-0.415,5.914,2.242,4.291,5.903l-2.02,4.544c-1.627,3.66,0.25,7.342,4.168,8.178l4.861,1.04
		c3.918,0.837,4.932,3.959,2.256,6.939l-3.324,3.699c-2.678,2.979-2.029,7.06,1.438,9.066l4.301,2.49
		c3.469,2.005,3.469,5.29,0,7.295l-4.301,2.492c-3.467,2.006-4.115,6.086-1.438,9.064l3.324,3.699
		c2.676,2.98,1.662,6.102-2.256,6.939l-4.861,1.039c-3.918,0.836-5.795,4.518-4.168,8.178l2.02,4.545
		c1.623,3.66-0.309,6.316-4.291,5.902l-4.945-0.514c-3.982-0.416-6.904,2.506-6.488,6.49l0.514,4.945
		c0.412,3.982-2.242,5.914-5.904,4.289l-4.545-2.018c-3.66-1.625-7.34,0.25-8.178,4.168l-1.039,4.859
		c-0.838,3.92-3.959,4.934-6.939,2.256l-3.697-3.322c-2.98-2.678-7.061-2.031-9.066,1.438l-2.492,4.301
		c-2.006,3.467-5.289,3.467-7.295,0l-2.491-4.301c-2.006-3.469-6.085-4.115-9.065-1.438l-3.699,3.322
		c-2.979,2.678-6.102,1.664-6.939-2.256l-1.039-4.859c-0.837-3.918-4.517-5.793-8.178-4.168l-4.544,2.018
		c-3.662,1.625-6.318-0.307-5.904-4.289l0.515-4.945c0.415-3.984-2.506-6.906-6.49-6.49l-4.945,0.514
		c-3.984,0.414-5.915-2.242-4.289-5.902l2.018-4.545c1.625-3.66-0.25-7.342-4.168-8.178l-4.862-1.039
		c-3.917-0.838-4.932-3.959-2.255-6.939l3.323-3.699c2.677-2.979,2.031-7.059-1.437-9.066L2.6,78.647
		c-3.467-2.006-3.467-5.291,0-7.295l4.302-2.49c3.468-2.006,4.114-6.087,1.437-9.066l-3.323-3.699
		c-2.677-2.979-1.662-6.102,2.255-6.939l4.862-1.04c3.917-0.836,5.792-4.518,4.168-8.178l-2.018-4.544
		c-1.625-3.661,0.305-6.318,4.289-5.903l4.945,0.515c3.984,0.414,6.905-2.507,6.49-6.492l-0.515-4.944
		c-0.414-3.984,2.243-5.914,5.904-4.29L39.94,16.3c3.661,1.625,7.341-0.25,8.178-4.168l1.039-4.861
		c0.837-3.917,3.96-4.932,6.939-2.254l3.699,3.322c2.979,2.677,7.059,2.03,9.065-1.437L71.352,2.601z"/>
	<path fill="#E54162" d="M23.437,86.118v33.883l0.08-0.008c3.984-0.416,6.905,2.506,6.49,6.49l-0.514,4.945
		c-0.415,3.982,2.242,5.914,5.904,4.289l4.544-2.018c3.661-1.625,7.341,0.25,8.178,4.168l1.04,4.861
		c0.837,3.918,3.96,4.932,6.939,2.254l3.699-3.322c2.979-2.678,7.06-2.031,9.065,1.438l2.491,4.301c2.006,3.467,5.289,3.467,7.295,0
		l2.492-4.301c2.006-3.469,6.086-4.115,9.066-1.438l3.697,3.322c2.98,2.678,6.102,1.664,6.939-2.254l1.039-4.861
		c0.838-3.918,4.518-5.793,8.18-4.168l4.543,2.018c3.662,1.625,6.316-0.307,5.904-4.289l-0.514-4.945
		c-0.416-3.984,2.506-6.906,6.488-6.49l0.08,0.008V86.118H23.437z"/>
	<path fill="#FFC100" d="M122.283,55.456H43.751c-2.363,0-4.279,1.916-4.279,4.279v45.704c0,2.361,1.916,4.279,4.279,4.279H78.73
		c0.484,3.977,3.863,7.061,7.971,7.061h0.668v-7.061h34.914c2.363,0,4.279-1.918,4.279-4.279V59.734
		C126.563,57.372,124.646,55.456,122.283,55.456"/>
	<path fill="#00D6CE" d="M28.221,42.847h87.806c2.645,0,4.785,2.142,4.785,4.785v51.102c0,2.643-2.141,4.783-4.785,4.783H76.916
		c-0.537,4.447-4.319,7.895-8.909,7.895H67.26v-7.895H28.221c-2.643,0-4.785-2.141-4.785-4.783V47.632
		C23.437,44.989,25.578,42.847,28.221,42.847"/>
	<g opacity="0.1">
		<g>
			<rect x="34.99" y="60.626" fill="none" width="73.025" height="33.833"/>
			<text transform="matrix(1 0 0 1 34.9902 87.9756)" font-family="'Helsinki'" font-size="31.9148">quiz</text>
		</g>
	</g>
</g>
</svg>
