<?xml version="1.0" encoding="utf-8"?>
<!-- Generator: Adobe Illustrator 13.0.0, SVG Export Plug-In . SVG Version: 6.00 Build 14948)  -->
<!DOCTYPE svg PUBLIC "-//W3C//DTD SVG 1.1//EN" "http://www.w3.org/Graphics/SVG/1.1/DTD/svg11.dtd">
<svg version="1.1" id="Layer_1" xmlns="http://www.w3.org/2000/svg" xmlns:xlink="http://www.w3.org/1999/xlink" x="0px" y="0px"
	 width="106px" height="106px" viewBox="0 0 106 106" enable-background="new 0 0 106 106" xml:space="preserve">
<g>
	<circle opacity="0.8" fill="#FFFFFF" cx="53" cy="53" r="53"/>
	<g>
		<path fill="#07233E" d="M46.051,38.106c-0.039-1.494-1.256-2.694-2.76-2.694c-1.503,0-2.72,1.2-2.759,2.694h-0.007v32.608h0.014
			c0.076,1.461,1.273,2.623,2.752,2.623s2.677-1.162,2.752-2.623h0.016V38.106H46.051z"/>
		<path fill="#07233E" d="M67.551,38.106c-0.039-1.494-1.256-2.694-2.76-2.694c-1.503,0-2.72,1.2-2.759,2.694h-0.007v32.608h0.014
			c0.076,1.461,1.273,2.623,2.752,2.623s2.677-1.162,2.752-2.623h0.016V38.106H67.551z"/>
	</g>
</g>
</svg>
