<?xml version="1.0" encoding="utf-8"?>
<!-- Generator: Adobe Illustrator 13.0.0, SVG Export Plug-In . SVG Version: 6.00 Build 14948)  -->
<!DOCTYPE svg PUBLIC "-//W3C//DTD SVG 1.1//EN" "http://www.w3.org/Graphics/SVG/1.1/DTD/svg11.dtd">
<svg version="1.1" id="Layer_1" xmlns="http://www.w3.org/2000/svg" xmlns:xlink="http://www.w3.org/1999/xlink" x="0px" y="0px"
	 width="106px" height="106px" viewBox="0 0 106 106" enable-background="new 0 0 106 106" xml:space="preserve">
<g>
	<circle opacity="0.8" fill="#FFFFFF" cx="53" cy="53" r="53"/>
	<path fill="#07233E" d="M76.063,46.748c-0.738-0.461-1.711-0.235-2.172,0.505c-0.461,0.739-0.234,1.712,0.504,2.172
		c1.72,1.072,2.746,2.923,2.746,4.95s-1.026,3.877-2.746,4.95L48.528,75.454c-1.826,1.138-4.037,1.194-5.917,0.15
		c-1.88-1.043-3.003-2.95-3.003-5.101V38.246c0-2.15,1.123-4.058,3.003-5.102c1.88-1.043,4.091-0.986,5.917,0.151l15.059,9.389
		c0.738,0.461,1.712,0.235,2.172-0.504c0.461-0.738,0.236-1.712-0.504-2.172l-15.059-9.39c-2.811-1.753-6.219-1.84-9.116-0.232
		c-2.896,1.608-4.626,4.546-4.626,7.859v32.258c0,3.313,1.73,6.25,4.627,7.858c1.379,0.766,2.875,1.147,4.367,1.147
		c1.641,0,3.277-0.462,4.748-1.38l25.867-16.129c2.65-1.652,4.232-4.504,4.232-7.626C80.295,51.252,78.713,48.401,76.063,46.748z"/>
</g>
</svg>
