<?xml version="1.0" encoding="utf-8"?>
<!-- Generator: Adobe Illustrator 13.0.0, SVG Export Plug-In . SVG Version: 6.00 Build 14948)  -->
<!DOCTYPE svg PUBLIC "-//W3C//DTD SVG 1.1//EN" "http://www.w3.org/Graphics/SVG/1.1/DTD/svg11.dtd">
<svg version="1.1" id="Layer_1" xmlns="http://www.w3.org/2000/svg" xmlns:xlink="http://www.w3.org/1999/xlink" x="0px" y="0px"
	 width="105px" height="80px" viewBox="0 0 105 80" enable-background="new 0 0 105 80" xml:space="preserve">
<g>
	<path fill="#FF3939" d="M89.619,0H15.38C6.891,0,0,6.893,0,15.385v49.23C0,73.107,6.891,80,15.38,80h74.239
		C98.109,80,105,73.107,105,64.615v-49.23C105,6.893,98.109,0,89.619,0z"/>
	<path fill="#C90232" d="M105,15.385v49.23C105,73.107,98.109,80,89.619,80H52.5V0h37.119C98.109,0,105,6.893,105,15.385z"/>
	<path fill="#ECECF1" d="M52.5,27.938l-15.38-8.553v41.847l15.38-8.862l21.656-12.431L52.5,27.938z"/>
	<path fill="#E2E2E7" d="M74.156,39.938L52.5,52.369V27.938L74.156,39.938z"/>
</g>
</svg>
