<?xml version="1.0" encoding="utf-8"?>
<!-- Generator: Adobe Illustrator 13.0.0, SVG Export Plug-In . SVG Version: 6.00 Build 14948)  -->
<!DOCTYPE svg PUBLIC "-//W3C//DTD SVG 1.1//EN" "http://www.w3.org/Graphics/SVG/1.1/DTD/svg11.dtd">
<svg version="1.1" id="Layer_1" xmlns="http://www.w3.org/2000/svg" xmlns:xlink="http://www.w3.org/1999/xlink" x="0px" y="0px"
	 width="67.054px" height="55.785px" viewBox="0 0 67.054 55.785" enable-background="new 0 0 67.054 55.785" xml:space="preserve">
<path fill="#647388" d="M40.87,29.497c0.926,0,1.678-0.752,1.678-1.677c0-0.927-0.752-1.68-1.678-1.68H15.464
	c-0.928,0-1.679,0.753-1.679,1.68c0,0.925,0.751,1.677,1.679,1.677H40.87z M1.678,29.497h6.474c0.928,0,1.678-0.752,1.678-1.677
	c0-0.927-0.75-1.68-1.678-1.68H1.678C0.753,26.14,0,26.893,0,27.82C0,28.745,0.753,29.497,1.678,29.497z M19.659,35.702
	c0-0.928-0.752-1.678-1.678-1.678h-6.473c-0.928,0-1.678,0.75-1.678,1.678c0,0.926,0.75,1.678,1.678,1.678h6.473
	C18.907,37.38,19.659,36.628,19.659,35.702z M25.588,41.548h-6.473c-0.928,0-1.679,0.752-1.679,1.68
	c0,0.926,0.751,1.678,1.679,1.678h6.473c0.927,0,1.679-0.752,1.679-1.678C27.267,42.3,26.515,41.548,25.588,41.548z M7.363,21.754
	h33.907c0.002,0,0.003-0.002,0.006-0.002c0.041,0,0.082,0.002,0.123,0.002c4.098,0,7.969-1.971,10.379-5.287
	c3.432-4.722,2.379-11.358-2.344-14.79c-3.925-2.851-9.446-1.982-12.301,1.95c-2.393,3.291-1.661,7.917,1.634,10.309
	c2.784,2.022,6.694,1.403,8.716-1.382c1.726-2.376,1.195-5.714-1.18-7.441c-0.875-0.635-1.938-0.95-3.018-0.867
	c-0.926,0.065-1.622,0.867-1.559,1.791c0.063,0.924,0.84,1.617,1.792,1.556c0.19-0.02,0.509,0.016,0.813,0.237
	c0.878,0.638,1.075,1.874,0.435,2.753c-0.933,1.287-2.739,1.575-4.029,0.637c-1.795-1.303-2.193-3.825-0.891-5.621
	c1.768-2.432,5.187-2.975,7.614-1.208c3.227,2.344,3.946,6.875,1.602,10.104c-1.8,2.477-4.687,3.892-7.773,3.9h-0.019
	c-0.003,0-0.003,0.002-0.008,0.002H7.363c-0.925,0-1.678,0.751-1.678,1.678C5.686,21.002,6.438,21.754,7.363,21.754z M24.158,35.702
	c0,0.926,0.753,1.678,1.678,1.678h28.685c0.003,0,0.004,0,0.007,0c0.042-0.002,0.086-0.002,0.131,0c3.027,0,5.885,1.453,7.663,3.902
	c2.344,3.227,1.625,7.76-1.603,10.104c-1.177,0.855-2.62,1.201-4.057,0.973c-1.438-0.229-2.702-1.002-3.558-2.18
	c-1.303-1.797-0.902-4.32,0.893-5.623c1.286-0.936,3.093-0.648,4.029,0.639c0.636,0.879,0.442,2.111-0.434,2.754
	c-0.002,0-0.003,0-0.005,0c-0.138,0.102-0.29,0.17-0.457,0.209c-0.902,0.205-1.468,1.104-1.265,2.008
	c0.177,0.779,0.871,1.307,1.635,1.307c0.125,0,0.248-0.014,0.374-0.041c0.609-0.141,1.177-0.396,1.685-0.766
	c0.003-0.002,0.004-0.004,0.007-0.006c2.372-1.729,2.898-5.063,1.175-7.436c-2.023-2.785-5.935-3.404-8.717-1.385
	c-3.293,2.395-4.025,7.02-1.636,10.313c1.382,1.902,3.425,3.154,5.746,3.521c0.468,0.076,0.937,0.111,1.398,0.111
	c1.845,0,3.636-0.58,5.157-1.684c4.726-3.434,5.777-10.068,2.346-14.791c-2.41-3.316-6.281-5.285-10.378-5.285
	c-0.042,0-0.084,0-0.126,0c-0.002,0-0.004,0-0.004,0H25.836C24.911,34.024,24.158,34.774,24.158,35.702z"/>
</svg>
