<?xml version="1.0" encoding="utf-8"?>
<!-- Generator: Adobe Illustrator 13.0.0, SVG Export Plug-In . SVG Version: 6.00 Build 14948)  -->
<!DOCTYPE svg PUBLIC "-//W3C//DTD SVG 1.1//EN" "http://www.w3.org/Graphics/SVG/1.1/DTD/svg11.dtd">
<svg version="1.1" id="Layer_1" xmlns="http://www.w3.org/2000/svg" xmlns:xlink="http://www.w3.org/1999/xlink" x="0px" y="0px"
	 width="377.138px" height="53.99px" viewBox="0 0 377.138 53.99" enable-background="new 0 0 377.138 53.99" xml:space="preserve">
<g>
	<g>
		<path fill="#C11162" d="M19.948,53.99C7.663,53.99,0,48.375,0,38.07h9.644c0,5.152,4.096,7.993,10.834,7.993
			c6.011,0,9.71-2.114,9.71-6.144c0-3.897-2.444-5.284-9.05-6.605l-6.738-1.321C4.624,30.078,0.858,26.577,0.858,19.047
			C0.858,9.667,7.53,4.25,19.09,4.25c11.758,0,18.892,5.285,18.892,15.457h-9.248c0-4.888-3.83-7.53-10.105-7.53
			c-5.086,0-8.323,2.313-8.323,5.945c0,3.501,2.048,4.888,9.116,6.275l7.529,1.453c8.918,1.717,12.749,5.284,12.749,12.881
			C39.699,48.508,32.367,53.99,19.948,53.99z"/>
		<path fill="#C11162" d="M66.052,53.99c-11.031,0-19.091-5.681-19.091-17.043V5.043h9.909v31.904c0,5.813,2.972,8.588,9.182,8.588
			c6.209,0,9.182-2.774,9.182-8.588V5.043h9.908v31.904C85.142,48.31,77.083,53.99,66.052,53.99z"/>
		<path fill="#C11162" d="M114.332,53.99c-13.409,0-21.798-9.38-21.798-24.837c0-15.589,8.455-24.903,22.063-24.903
			c10.832,0,19.222,6.012,20.08,17.108h-9.445c-1.453-6.209-4.954-8.653-10.305-8.653c-7.795,0-12.484,5.945-12.484,16.58
			c0,10.503,4.492,16.382,12.154,16.382c6.143,0,10.04-2.774,10.635-8.918h9.645C134.28,47.78,126.288,53.99,114.332,53.99z"/>
		<path fill="#C11162" d="M162.019,53.99c-13.408,0-21.798-9.38-21.798-24.837c0-15.589,8.455-24.903,22.063-24.903
			c10.833,0,19.222,6.012,20.081,17.108h-9.445c-1.454-6.209-4.955-8.653-10.305-8.653c-7.795,0-12.484,5.945-12.484,16.58
			c0,10.503,4.491,16.382,12.153,16.382c6.144,0,10.04-2.774,10.636-8.918h9.644C181.968,47.78,173.976,53.99,162.019,53.99z"/>
		<path fill="#C11162" d="M190.22,53.197V5.043h34.811V13.3h-24.902v10.899h23.053v8.257h-23.053V44.94h26.092v8.257H190.22z"/>
		<path fill="#C11162" d="M251.118,53.99c-12.286,0-19.949-5.615-19.949-15.92h9.645c0,5.152,4.096,7.993,10.833,7.993
			c6.011,0,9.71-2.114,9.71-6.144c0-3.897-2.443-5.284-9.049-6.605l-6.738-1.321c-9.775-1.915-13.541-5.416-13.541-12.946
			c0-9.38,6.672-14.797,18.23-14.797c11.758,0,18.893,5.285,18.893,15.457h-9.248c0-4.888-3.831-7.53-10.106-7.53
			c-5.086,0-8.323,2.313-8.323,5.945c0,3.501,2.049,4.888,9.116,6.275l7.53,1.453c8.918,1.717,12.748,5.284,12.748,12.881
			C270.868,48.508,263.536,53.99,251.118,53.99z"/>
		<path fill="#C11162" d="M295.173,53.99c-12.287,0-19.949-5.615-19.949-15.92h9.645c0,5.152,4.095,7.993,10.832,7.993
			c6.012,0,9.711-2.114,9.711-6.144c0-3.897-2.444-5.284-9.05-6.605l-6.737-1.321c-9.776-1.915-13.541-5.416-13.541-12.946
			c0-9.38,6.671-14.797,18.23-14.797c11.758,0,18.893,5.285,18.893,15.457h-9.248c0-4.888-3.832-7.53-10.107-7.53
			c-5.086,0-8.322,2.313-8.322,5.945c0,3.501,2.048,4.888,9.115,6.275l7.531,1.453c8.917,1.717,12.748,5.284,12.748,12.881
			C314.923,48.508,307.591,53.99,295.173,53.99z"/>
		<path fill="#C11162" d="M330.376,39.523h-4.426l-2.709-20.411V5.241h9.908v13.871L330.376,39.523z M323.241,53.197v-9.645h9.908
			v9.645H323.241z"/>
		<path fill="#C11162" d="M352.369,39.523h-4.426l-2.708-20.411V5.241h9.908v13.871L352.369,39.523z M345.235,53.197v-9.645h9.908
			v9.645H345.235z"/>
		<path fill="#C11162" d="M374.363,39.523h-4.426l-2.708-20.411V5.241h9.908v13.871L374.363,39.523z M367.229,53.197v-9.645h9.908
			v9.645H367.229z"/>
	</g>
	<g>
		<path fill="#FF3B73" d="M19.948,49.74C7.663,49.74,0,44.125,0,33.82h9.644c0,5.152,4.096,7.993,10.834,7.993
			c6.011,0,9.71-2.114,9.71-6.144c0-3.897-2.444-5.284-9.05-6.605l-6.738-1.321C4.624,25.828,0.858,22.327,0.858,14.797
			C0.858,5.417,7.53,0,19.09,0c11.758,0,18.892,5.285,18.892,15.457h-9.248c0-4.888-3.83-7.53-10.105-7.53
			c-5.086,0-8.323,2.313-8.323,5.945c0,3.501,2.048,4.888,9.116,6.275l7.529,1.453c8.918,1.717,12.749,5.284,12.749,12.881
			C39.699,44.258,32.367,49.74,19.948,49.74z"/>
		<path fill="#FF3B73" d="M66.052,49.74c-11.031,0-19.091-5.681-19.091-17.043V0.793h9.909v31.904c0,5.813,2.972,8.588,9.182,8.588
			c6.209,0,9.182-2.774,9.182-8.588V0.793h9.908v31.904C85.142,44.06,77.083,49.74,66.052,49.74z"/>
		<path fill="#FF3B73" d="M114.332,49.74c-13.409,0-21.798-9.38-21.798-24.837C92.534,9.314,100.989,0,114.597,0
			c10.832,0,19.222,6.012,20.08,17.108h-9.445c-1.453-6.209-4.954-8.653-10.305-8.653c-7.795,0-12.484,5.945-12.484,16.58
			c0,10.503,4.492,16.382,12.154,16.382c6.143,0,10.04-2.774,10.635-8.918h9.645C134.28,43.53,126.288,49.74,114.332,49.74z"/>
		<path fill="#FF3B73" d="M162.019,49.74c-13.408,0-21.798-9.38-21.798-24.837C140.221,9.314,148.676,0,162.283,0
			c10.833,0,19.222,6.012,20.081,17.108h-9.445c-1.454-6.209-4.955-8.653-10.305-8.653c-7.795,0-12.484,5.945-12.484,16.58
			c0,10.503,4.491,16.382,12.153,16.382c6.144,0,10.04-2.774,10.636-8.918h9.644C181.968,43.53,173.976,49.74,162.019,49.74z"/>
		<path fill="#FF3B73" d="M190.22,48.947V0.793h34.811V9.05h-24.902v10.899h23.053v8.257h-23.053V40.69h26.092v8.257H190.22z"/>
		<path fill="#FF3B73" d="M251.118,49.74c-12.286,0-19.949-5.615-19.949-15.92h9.645c0,5.152,4.096,7.993,10.833,7.993
			c6.011,0,9.71-2.114,9.71-6.144c0-3.897-2.443-5.284-9.049-6.605l-6.738-1.321c-9.775-1.915-13.541-5.416-13.541-12.946
			C232.028,5.417,238.7,0,250.259,0c11.758,0,18.893,5.285,18.893,15.457h-9.248c0-4.888-3.831-7.53-10.106-7.53
			c-5.086,0-8.323,2.313-8.323,5.945c0,3.501,2.049,4.888,9.116,6.275l7.53,1.453c8.918,1.717,12.748,5.284,12.748,12.881
			C270.868,44.258,263.536,49.74,251.118,49.74z"/>
		<path fill="#FF3B73" d="M295.173,49.74c-12.287,0-19.949-5.615-19.949-15.92h9.645c0,5.152,4.095,7.993,10.832,7.993
			c6.012,0,9.711-2.114,9.711-6.144c0-3.897-2.444-5.284-9.05-6.605l-6.737-1.321c-9.776-1.915-13.541-5.416-13.541-12.946
			c0-9.38,6.671-14.797,18.23-14.797c11.758,0,18.893,5.285,18.893,15.457h-9.248c0-4.888-3.832-7.53-10.107-7.53
			c-5.086,0-8.322,2.313-8.322,5.945c0,3.501,2.048,4.888,9.115,6.275l7.531,1.453c8.917,1.717,12.748,5.284,12.748,12.881
			C314.923,44.258,307.591,49.74,295.173,49.74z"/>
		<path fill="#FF3B73" d="M330.376,35.273h-4.426l-2.709-20.411V0.991h9.908v13.871L330.376,35.273z M323.241,48.947v-9.645h9.908
			v9.645H323.241z"/>
		<path fill="#FF3B73" d="M352.369,35.273h-4.426l-2.708-20.411V0.991h9.908v13.871L352.369,35.273z M345.235,48.947v-9.645h9.908
			v9.645H345.235z"/>
		<path fill="#FF3B73" d="M374.363,35.273h-4.426l-2.708-20.411V0.991h9.908v13.871L374.363,35.273z M367.229,48.947v-9.645h9.908
			v9.645H367.229z"/>
	</g>
	<path opacity="0.3" fill="#FFFFFF" d="M295.7,24.146c-6.737,0-10.832-2.841-10.832-7.993h-8.741
		c0.446,6.603,4.327,9.794,13.497,11.59l6.737,1.321c3.047,0.609,5.199,1.236,6.644,2.113c3.893-0.98,6.932-2.751,8.959-5.262
		c-1.83-1.856-4.55-3.123-8.275-3.992C302.043,23.388,299.288,24.146,295.7,24.146z M325.95,17.606h4.426l2.258-16.615h-8.889
		L325.95,17.606z M325.42,31.28h5.498l1.312-9.645h-8.089L325.42,31.28z M251.646,24.146c-6.737,0-10.833-2.841-10.833-7.993h-8.74
		c0.446,6.603,4.327,9.794,13.496,11.59l6.738,1.321c3.047,0.609,5.199,1.236,6.644,2.113c3.892-0.98,6.931-2.751,8.959-5.262
		c-1.83-1.856-4.55-3.123-8.275-3.992C257.989,23.388,255.234,24.146,251.646,24.146z M374.363,17.606l2.259-16.615h-8.889
		l2.204,16.615H374.363z M258.12,3.934l-7.53-1.453c-2.944-0.578-5.009-1.158-6.425-1.889c-3.973,0.835-7.041,2.555-9.104,5.041
		c1.857,1.804,4.643,3.074,8.533,4.011c1.449-1.097,3.576-1.717,6.202-1.717c5.667,0,9.33,2.161,9.989,6.179
		c0.456,0.396,0.803,0.844,1.055,1.352h8.311c0-3.024-0.645-5.606-1.84-7.756C265.239,5.914,262.225,4.724,258.12,3.934z
		 M369.407,31.28h5.499l1.311-9.645h-8.089L369.407,31.28z M347.413,31.28h5.499l1.311-9.645h-8.089L347.413,31.28z M347.943,17.606
		h4.426l2.259-16.615h-8.889L347.943,17.606z M302.175,3.934l-7.531-1.453c-2.944-0.578-5.008-1.158-6.425-1.889
		c-3.972,0.835-7.04,2.555-9.104,5.041c1.858,1.804,4.644,3.074,8.534,4.011c1.449-1.097,3.576-1.717,6.201-1.717
		c5.668,0,9.33,2.161,9.989,6.179c0.456,0.396,0.804,0.844,1.055,1.352h8.312c0-3.024-0.645-5.606-1.841-7.756
		C309.294,5.914,306.278,4.724,302.175,3.934z M26.95,3.934L19.421,2.48c-2.945-0.578-5.009-1.158-6.426-1.889
		C9.023,1.427,5.954,3.146,3.892,5.633c1.858,1.804,4.643,3.074,8.534,4.011c1.448-1.097,3.576-1.717,6.202-1.717
		c5.666,0,9.33,2.161,9.988,6.179c0.457,0.396,0.804,0.844,1.055,1.352h8.311c0-3.024-0.645-5.606-1.84-7.756
		C34.07,5.914,31.056,4.724,26.95,3.934z M46.961,15.03c0,7.868,3.868,13.007,9.909,15.427V0.793h-9.909V15.03z M20.478,24.146
		c-6.738,0-10.834-2.841-10.834-7.993h-8.74c0.446,6.603,4.328,9.794,13.496,11.59l6.738,1.321c3.047,0.609,5.199,1.236,6.645,2.113
		c3.892-0.98,6.931-2.751,8.959-5.262c-1.83-1.856-4.551-3.123-8.275-3.992C26.819,23.388,24.064,24.146,20.478,24.146z
		 M75.233,30.457c6.039-2.42,9.908-7.559,9.908-15.427V0.793h-9.908V30.457z M150.13,7.368c0-1.532,0.107-2.955,0.298-4.289
		c-4.447,2.702-7.592,7.12-9.126,12.979c1.53,5.837,4.66,10.26,9.076,12.96c-0.16-1.244-0.248-2.567-0.248-3.982
		c0-3.452,0.501-6.4,1.436-8.821C150.63,13.797,150.13,10.842,150.13,7.368z M125.231,14.832c-0.049,0.506-0.129,0.979-0.222,1.439
		c0.077,0.273,0.153,0.547,0.222,0.837h9.396c0.009-0.054,0.022-0.104,0.03-0.159c-0.061-0.729-0.158-1.433-0.284-2.117H125.231z
		 M172.919,14.832c-0.049,0.506-0.129,0.979-0.222,1.439c0.077,0.273,0.153,0.547,0.222,0.837h9.395
		c0.01-0.054,0.023-0.104,0.031-0.159c-0.062-0.729-0.159-1.433-0.285-2.117H172.919z M200.128,0.793h-9.908V31.28h9.908v-3.074
		h23.053v-5.183h-23.053V9.05h23.053V2.282h-23.053V0.793z M102.442,7.368c0-1.532,0.108-2.955,0.299-4.289
		c-4.447,2.702-7.592,7.12-9.126,12.979c1.529,5.837,4.659,10.26,9.075,12.96c-0.16-1.244-0.248-2.567-0.248-3.982
		c0-3.452,0.502-6.4,1.436-8.821C102.943,13.797,102.442,10.842,102.442,7.368z"/>
</g>
</svg>
