<?xml version="1.0" encoding="utf-8"?>
<!-- Generator: Adobe Illustrator 13.0.0, SVG Export Plug-In . SVG Version: 6.00 Build 14948)  -->
<!DOCTYPE svg PUBLIC "-//W3C//DTD SVG 1.1//EN" "http://www.w3.org/Graphics/SVG/1.1/DTD/svg11.dtd">
<svg version="1.1" id="Layer_1" xmlns="http://www.w3.org/2000/svg" xmlns:xlink="http://www.w3.org/1999/xlink" x="0px" y="0px"
	 width="105px" height="105px" viewBox="0 0 105 105" enable-background="new 0 0 105 105" xml:space="preserve">
<g>
	<path fill="#FFE07D" d="M105,52.5c0,28.996-23.504,52.5-52.5,52.5C23.506,105,0,81.496,0,52.5C0,23.505,23.506,0,52.5,0
		C81.496,0,105,23.505,105,52.5z"/>
	<path fill="#966A5B" d="M85.685,55.887h-6.088v6.773c0,1.872-1.515,3.388-3.386,3.388H28.792c-1.871,0-3.388-1.516-3.388-3.388
		v-6.773h-6.089c-2.101,0-3.751,1.904-3.339,3.964C19.391,76.907,34.441,89.758,52.5,89.758c18.062,0,33.111-12.852,36.524-29.907
		C89.437,57.792,87.788,55.887,85.685,55.887z"/>
	<path fill="#FF8086" d="M34.615,85.189c5.307,2.913,11.402,4.569,17.885,4.569c6.485,0,12.581-1.656,17.892-4.569
		c-3.439-6.343-10.17-10.672-17.892-10.672C44.779,74.517,38.054,78.847,34.615,85.189z"/>
	<path fill="#966A5B" d="M38.78,40.646c-0.747,0-1.43-0.498-1.633-1.251c-0.591-2.183-3.456-3.83-6.663-3.83
		c-3.206,0-6.071,1.646-6.665,3.83c-0.244,0.902-1.178,1.433-2.076,1.192c-0.902-0.245-1.436-1.175-1.191-2.079
		c1.011-3.728,5.095-6.331,9.932-6.331s8.92,2.604,9.93,6.331c0.246,0.903-0.288,1.833-1.189,2.079
		C39.077,40.627,38.928,40.646,38.78,40.646z"/>
	<path fill="#966A5B" d="M82.641,40.646c-0.744,0-1.427-0.498-1.632-1.251c-0.592-2.183-3.454-3.83-6.663-3.83
		c-3.207,0-6.071,1.646-6.663,3.83c-0.244,0.902-1.174,1.433-2.078,1.192c-0.901-0.245-1.435-1.175-1.188-2.079
		c1.01-3.728,5.093-6.331,9.93-6.331c4.839,0,8.922,2.604,9.932,6.331c0.246,0.903-0.287,1.833-1.189,2.079
		C82.938,40.627,82.79,40.646,82.641,40.646z"/>
	<path fill="#FFD064" d="M57.581,99.92c-28.995,0-52.5-23.506-52.5-52.5c0-13.205,4.876-25.271,12.923-34.498
		C6.971,22.548,0,36.709,0,52.5C0,81.496,23.506,105,52.5,105c15.792,0,29.951-6.971,39.576-18.004
		C82.852,95.043,70.786,99.92,57.581,99.92z"/>
	<path fill="#785353" d="M25.404,55.887h-6.089c-2.101,0-3.751,1.904-3.339,3.964c0.076,0.38,0.189,0.742,0.275,1.116h9.153V55.887z
		"/>
	<path fill="#785353" d="M85.685,55.887h-6.088v5.08h9.154c0.086-0.374,0.198-0.736,0.273-1.116
		C89.437,57.792,87.788,55.887,85.685,55.887z"/>
	<path fill="#FFFFFF" d="M25.404,55.887v6.773c0,1.872,1.517,3.388,3.388,3.388h47.419c1.871,0,3.386-1.516,3.386-3.388v-6.773
		H25.404z"/>
	<path fill="#FFF5D7" d="M25.404,55.887h54.193v5.08H25.404V55.887z"/>
	<path fill="#E5646E" d="M52.5,86.371c5.761,0,11.13-1.625,15.724-4.4c-3.726-4.548-9.385-7.453-15.724-7.453
		c-6.338,0-11.994,2.905-15.722,7.454C41.373,84.746,46.741,86.371,52.5,86.371z"/>
	<path fill="#FF9A9F" d="M52.5,89.758c0.57,0,1.131-0.029,1.694-0.055v-6.72c0-0.935-0.759-1.693-1.694-1.693
		s-1.693,0.759-1.693,1.693v6.72C51.369,89.729,51.932,89.758,52.5,89.758z"/>
	<path fill="#FF8086" d="M52.5,86.371c0.57,0,1.133-0.016,1.694-0.048v-3.339c0-0.935-0.759-1.693-1.694-1.693
		s-1.693,0.759-1.693,1.693v3.339C51.369,86.355,51.932,86.371,52.5,86.371z"/>
</g>
</svg>
