<?xml version="1.0" encoding="utf-8"?>
<!-- Generator: Adobe Illustrator 13.0.0, SVG Export Plug-In . SVG Version: 6.00 Build 14948)  -->
<!DOCTYPE svg PUBLIC "-//W3C//DTD SVG 1.1//EN" "http://www.w3.org/Graphics/SVG/1.1/DTD/svg11.dtd">
<svg version="1.1" id="Layer_1" xmlns="http://www.w3.org/2000/svg" xmlns:xlink="http://www.w3.org/1999/xlink" x="0px" y="0px"
	 width="16px" height="15px" viewBox="0 0 16 15" enable-background="new 0 0 16 15" xml:space="preserve">
<g>
	<g>
		<path fill="#F1A900" d="M15.877,6.014c0.215-0.218,0.141-0.44-0.162-0.491l-4.502-0.768c-0.305-0.052-0.67-0.313-0.816-0.582
			L8.258,0.201c-0.146-0.269-0.381-0.268-0.525,0L5.599,4.178C5.455,4.447,5.088,4.71,4.786,4.763L0.284,5.538
			c-0.302,0.051-0.375,0.273-0.16,0.492l3.184,3.224c0.215,0.219,0.356,0.642,0.313,0.941l-0.641,4.452
			c-0.044,0.3,0.148,0.437,0.424,0.302l4.101-1.982c0.275-0.134,0.73-0.134,1.008-0.001l4.104,1.976
			c0.277,0.133,0.469-0.004,0.424-0.304l-0.65-4.45c-0.041-0.301,0.096-0.725,0.313-0.943L15.877,6.014z"/>
		<path fill="#F4E051" d="M10.396,4.173L8.258,0.201c-0.146-0.269-0.381-0.268-0.525,0L5.599,4.178
			C5.455,4.447,5.088,4.71,4.786,4.763L0.284,5.538c-0.302,0.051-0.375,0.273-0.16,0.492l3.184,3.224
			c0.215,0.219,0.356,0.642,0.313,0.941l-0.271,1.883l7.556-7.434C10.691,4.531,10.494,4.354,10.396,4.173z"/>
		<path fill="#F5BF2C" d="M3.254,14.713c0-0.008,0.001-0.018,0.002-0.028l0.641-4.45c0.057-0.388-0.112-0.893-0.39-1.173
			L0.324,5.836C0.318,5.829,0.311,5.822,0.306,5.815C0.314,5.813,0.324,5.813,0.333,5.81l4.502-0.775
			c0.391-0.068,0.826-0.38,1.012-0.727L7.98,0.332c0.004-0.01,0.01-0.019,0.014-0.025C8,0.313,8.004,0.322,8.01,0.332l2.141,3.971
			c0.188,0.346,0.621,0.658,1.016,0.726l4.5,0.767c0.012,0.001,0.02,0.003,0.029,0.005c-0.006,0.006-0.012,0.014-0.02,0.022
			l-3.178,3.231c-0.277,0.279-0.441,0.784-0.387,1.172l0.652,4.449c0,0.012,0,0.021,0.002,0.028
			c-0.01-0.003-0.018-0.005-0.027-0.011l-4.104-1.976C8.465,12.634,8.24,12.59,8.01,12.59c-0.232,0-0.457,0.045-0.629,0.128
			l-4.1,1.984C3.271,14.706,3.262,14.709,3.254,14.713L3.254,14.713z"/>
		<path fill="#F1A900" d="M9.406,4.69L7.998,2.074L6.59,4.694C6.287,5.262,5.624,5.738,4.98,5.849L2.014,6.359l2.099,2.125
			c0.454,0.461,0.71,1.229,0.616,1.865l-0.063,0.433l5.425-5.339C9.807,5.24,9.563,4.977,9.406,4.69z"/>
		<path fill="#F4DF50" d="M10.092,5.443l-5.425,5.339l-0.357,2.5l2.701-1.307c0.289-0.141,0.635-0.215,1-0.215
			c0.361,0,0.705,0.074,0.994,0.213l2.705,1.301l-0.43-2.931c-0.092-0.638,0.16-1.405,0.617-1.867l2.09-2.129l-2.965-0.506
			C10.701,5.788,10.377,5.645,10.092,5.443z"/>
		<path fill="#F5BF2C" d="M4.66,12.804l0.348-2.416c0.105-0.727-0.174-1.569-0.694-2.097L2.584,6.542L5.027,6.12
			C5.751,5.997,6.496,5.462,6.84,4.822l1.158-2.158l1.16,2.156c0.35,0.649,1.08,1.169,1.816,1.294l2.443,0.417l-1.727,1.753
			c-0.51,0.52-0.795,1.382-0.689,2.097l0.354,2.415l-2.229-1.071c-0.326-0.157-0.713-0.24-1.117-0.24
			c-0.408,0-0.797,0.084-1.125,0.242L4.66,12.804L4.66,12.804z"/>
		<path opacity="0.1" fill="#FFFFFF" d="M11.355,4.779l-8.104,7.975l-0.272,1.893c-0.044,0.3,0.148,0.437,0.424,0.302l1.24-0.6
			l9.283-9.131L11.355,4.779z M15.877,6.014c0.211-0.215,0.143-0.433-0.148-0.489l-7.48,7.361c0.098,0.016,0.188,0.042,0.264,0.079
			l3.111,1.497l1.217-1.197l-0.451-3.078c-0.041-0.301,0.096-0.725,0.313-0.943L15.877,6.014z M3.307,9.253
			c0.215,0.219,0.356,0.642,0.313,0.941L3.527,10.84l6.836-6.728L9.553,2.607L3.056,9.001L3.307,9.253z M8.553,0.75l-2.359,2.32
			L5.599,4.178C5.455,4.447,5.088,4.71,4.786,4.763L4.411,4.826L1.635,7.558l0.82,0.832l6.675-6.567L8.553,0.75z"/>
	</g>
</g>
</svg>
